# xmcd CD database file
#
# Track frame offsets:
#	150
#	16925
#	46197
#	60037
#	81987
#	106092
#	124162
#	144587
#	172755
#	190855
#
# Disc length: 2781 seconds
#
# Revision: 0
# Processed by: cddbd v1.5.2PL0 Copyright (c) Steve Scherf et al.
# Submitted via: CDex 1.51
#
DISCID=710adb0a
DTITLE=Jane Monheit  - Never Neverland 
DYEAR=2000
DGENRE=Jazz
TTITLE0=Please Be Kind
TTITLE1=Detour Ahead 
TTITLE2=More Than You Know 
TTITLE3=Dindi
TTITLE4=Save Your Love For Me 
TTITLE5=Never Let Me Go 
TTITLE6=My Foolish Heart 
TTITLE7=I Got It Bad (And That Ain't Good)
TTITLE8=Twisted
TTITLE9=Never Never Land 
EXTD=YEAR: 2000
EXTT0=
EXTT1=
EXTT2=
EXTT3=
EXTT4=
EXTT5=
EXTT6=
EXTT7=
EXTT8=
EXTT9=
PLAYORDER=
